<svg width="64" height="43" viewBox="0 0 64 43" fill="none" xmlns="http://www.w3.org/2000/svg">
<path d="M62.9387 20.1876C62.8463 19.9798 60.6192 15.0391 55.6659 10.0855C49.0688 3.48758 40.7329 0 31.56 0C22.3871 0 14.0512 3.48758 7.4541 10.0855C2.50075 15.0391 0.273724 19.9798 0.181261 20.1876C0.0617501 20.4566 0 20.7477 0 21.0421C0 21.3365 0.0617501 21.6276 0.181261 21.8966C0.273724 22.1046 2.50101 27.0441 7.45436 31.9969C14.0515 38.5933 22.3871 42.0801 31.56 42.0801C40.7329 42.0801 49.0685 38.5933 55.6656 31.997C60.619 27.0441 62.8463 22.1046 62.9387 21.8966C63.0582 21.6276 63.12 21.3365 63.12 21.0421C63.12 20.7477 63.0582 20.4566 62.9387 20.1876ZM31.56 11.5743C33.4326 11.5743 35.2631 12.1296 36.8201 13.17C38.3772 14.2103 39.5907 15.689 40.3073 17.4191C41.0239 19.1492 41.2114 21.0529 40.8461 22.8895C40.4808 24.7261 39.579 26.4131 38.2549 27.7373C36.9308 29.0614 35.2437 29.9631 33.4071 30.3284C31.5705 30.6938 29.6668 30.5063 27.9367 29.7897C26.2067 29.073 24.728 27.8595 23.6876 26.3025C22.6473 24.7455 22.092 22.915 22.092 21.0424C22.0948 18.5321 23.0932 16.1256 24.8682 14.3506C26.6432 12.5756 29.0498 11.5772 31.56 11.5743Z" fill="black"/>
</svg>
